<mxfile host="app.diagrams.net" modified="2023-04-24T03:23:14.728Z" agent="Mozilla/5.0 (Windows NT 10.0; Win64; x64) AppleWebKit/537.36 (KHTML, like Gecko) Chrome/114.0.0.0 Safari/537.36 Edg/114.0.1793.0" version="21.2.1" etag="s3SHD6FVcCDMPwts_OS_" type="github">
  <diagram name="Trang-1" id="y8Sz13ohWcYSzx5fNteA">
    <mxGraphModel>
      <root>
        <mxCell id="0" />
        <mxCell id="1" parent="0" />
      </root>
    </mxGraphModel>
  </diagram>
</mxfile>
